<?xml version="1.0" standalone="no"?>
<!DOCTYPE svg PUBLIC "-//W3C//DTD SVG 20010904//EN"
 "http://www.w3.org/TR/2001/REC-SVG-20010904/DTD/svg10.dtd">
<svg version="1.0" xmlns="http://www.w3.org/2000/svg"
 width="200.000000pt" height="200.000000pt" viewBox="0 0 200.000000 200.000000"
 preserveAspectRatio="xMidYMid meet">

<g transform="translate(0.000000,200.000000) scale(0.100000,-0.100000)"
fill="#0097a7" stroke="none">
<path d="M579 1868 c-31 -63 -35 -67 -58 -60 -15 4 -66 7 -116 7 -77 0 -98 -4
-147 -27 -76 -35 -138 -95 -179 -170 -28 -54 -34 -75 -37 -149 -3 -64 0 -100
12 -137 24 -71 87 -155 146 -193 28 -18 50 -35 50 -38 0 -3 -10 -35 -21 -71
-14 -44 -23 -102 -26 -180 -5 -110 -2 -136 34 -285 4 -17 -6 -24 -56 -44 -34
-13 -61 -27 -61 -31 0 -10 314 -130 322 -122 3 4 32 72 63 152 31 80 59 151
62 158 3 8 -16 3 -52 -13 -32 -14 -63 -25 -71 -25 -39 0 -44 260 -6 358 57
148 182 271 327 323 83 29 221 36 302 15 196 -50 349 -203 399 -399 23 -88 15
-220 -19 -310 -57 -148 -173 -263 -324 -320 -57 -22 -69 -22 -590 -25 l-533
-3 0 -104 0 -105 518 0 c483 0 522 1 601 20 257 62 461 257 542 520 34 108 34
302 0 410 -78 251 -259 433 -506 510 -96 29 -256 37 -352 17 -144 -31 -263
-93 -374 -195 -77 -71 -89 -73 -138 -17 -97 111 -27 275 118 275 23 0 41 -2
41 -5 0 -3 -14 -33 -31 -66 -30 -60 -30 -61 -7 -53 13 4 89 30 169 58 l146 51
-57 170 -57 170 -34 -67z"/>
<path d="M1530 234 c-25 -25 -85 -72 -133 -105 l-88 -59 345 0 346 0 0 105 0
105 -213 0 -213 0 -44 -46z"/>
</g>
</svg>
