<?xml version="1.0" standalone="no"?>
<!DOCTYPE svg PUBLIC "-//W3C//DTD SVG 20010904//EN"
 "http://www.w3.org/TR/2001/REC-SVG-20010904/DTD/svg10.dtd">
<svg version="1.0" xmlns="http://www.w3.org/2000/svg" fill='#d50000'
 width="460.000000pt" height="981.000000pt" viewBox="0 0 460.000000 981.000000"
 preserveAspectRatio="xMidYMid meet">

<g transform="translate(0.000000,981.000000) scale(0.100000,-0.100000)" stroke="none">
<path d="M2039 9773 c-14 -16 -79 -74 -145 -130 -146 -124 -393 -375 -529
-538 -828 -991 -1284 -2209 -1355 -3618 -46 -903 186 -1808 672 -2622 210
-350 443 -658 741 -977 134 -143 417 -410 441 -416 23 -5 114 543 165 993 100
890 142 1823 122 2740 -6 270 -13 967 -16 1550 -8 1558 -39 3045 -64 3045 -4
0 -18 -12 -32 -27z"/>
<path d="M2554 9575 c11 -163 26 -719 36 -1375 15 -1022 33 -3741 26 -4005
-12 -440 -43 -963 -82 -1370 -17 -180 -9 -346 27 -555 53 -311 168 -632 264
-738 l37 -42 52 42 c97 81 388 373 500 503 912 1056 1310 2381 1146 3815 -28
247 -45 344 -96 545 -222 873 -585 1654 -1062 2284 -168 223 -301 375 -581
666 -95 99 -196 212 -223 250 l-50 70 6 -90z"/>
<path d="M2321 1348 c-21 -100 -63 -233 -99 -311 l-35 -77 17 -101 c20 -123
43 -380 53 -598 l8 -164 129 -44 c71 -23 131 -42 132 -40 1 1 -2 126 -9 277
-12 305 -1 595 29 753 l16 88 -64 67 c-36 37 -86 96 -112 132 -26 36 -49 66
-51 68 -2 2 -8 -21 -14 -50z"/>
</g>
</svg>
